<svg width="24" height="24" viewBox="0 0 24 24" fill="none" xmlns="http://www.w3.org/2000/svg">
<path d="M4 12C4 13.3807 5.11929 14.5 6.5 14.5C7.88071 14.5 9 13.3807 9 12C9 10.6193 7.88071 9.5 6.5 9.5" stroke="#E19035" stroke-width="1.5" stroke-linecap="round"/>
<path d="M14 6.5L9 10" stroke="#E19035" stroke-width="1.5" stroke-linecap="round"/>
<path d="M14 17.5L9 14" stroke="#E19035" stroke-width="1.5" stroke-linecap="round"/>
<path d="M16.5 21C17.8807 21 19 19.8807 19 18.5C19 17.1193 17.8807 16 16.5 16C15.1193 16 14 17.1193 14 18.5" stroke="#E19035" stroke-width="1.5" stroke-linecap="round"/>
<path d="M18.6655 6.75C17.9751 7.94573 16.4461 8.35542 15.2504 7.66506C14.0547 6.97471 13.645 5.44573 14.3354 4.25C15.0257 3.05427 16.5547 2.64458 17.7504 3.33493" stroke="#E19035" stroke-width="1.5" stroke-linecap="round"/>
</svg>
