<svg width="24" height="24" viewBox="0 0 24 24" fill="none" xmlns="http://www.w3.org/2000/svg">
<path d="M2 5.25732C2 3.45835 3.567 2 5.5 2C7.433 2 9 3.45835 9 5.25732C9 7.04219 7.88292 9.12496 6.14003 9.86978C5.73374 10.0434 5.26626 10.0434 4.85997 9.86978C3.11708 9.12496 2 7.04219 2 5.25732Z" stroke="#AE5D02" stroke-width="1.5"/>
<path d="M15 17.2573C15 15.4584 16.567 14 18.5 14C20.433 14 22 15.4584 22 17.2573C22 19.0422 20.8829 21.125 19.14 21.8698C18.7337 22.0434 18.2663 22.0434 17.86 21.8698C16.1171 21.125 15 19.0422 15 17.2573Z" stroke="#AE5D02" stroke-width="1.5"/>
<path d="M11.9997 4.25C11.5855 4.25 11.2497 4.58579 11.2497 5C11.2497 5.41421 11.5855 5.75 11.9997 5.75V4.25ZM11.9997 19L12.5301 19.5303C12.823 19.2374 12.823 18.7626 12.5301 18.4697L11.9997 19ZM17.2054 8.68732L17.608 9.32007L17.2054 8.68732ZM6.7941 15.3127L7.19676 15.9454H7.19676L6.7941 15.3127ZM11.0301 16.9697C10.7372 16.6768 10.2623 16.6768 9.9694 16.9697C9.67651 17.2626 9.67651 17.7374 9.9694 18.0303L11.0301 16.9697ZM9.9694 19.9697C9.67651 20.2626 9.67651 20.7374 9.9694 21.0303C10.2623 21.3232 10.7372 21.3232 11.0301 21.0303L9.9694 19.9697ZM10.831 13.6327C11.1804 13.4104 11.2834 12.9468 11.061 12.5973C10.8387 12.2479 10.3751 12.1449 10.0256 12.3673L10.831 13.6327ZM13.1685 10.3673C12.819 10.5896 12.716 11.0532 12.9384 11.4027C13.1608 11.7521 13.6244 11.8551 13.9738 11.6327L13.1685 10.3673ZM16.1316 4.25H11.9997V5.75H16.1316V4.25ZM11.9997 18.25H7.86784V19.75H11.9997V18.25ZM12.5301 18.4697L11.0301 16.9697L9.9694 18.0303L11.4694 19.5303L12.5301 18.4697ZM11.4694 18.4697L9.9694 19.9697L11.0301 21.0303L12.5301 19.5303L11.4694 18.4697ZM7.86784 18.25C6.61729 18.25 6.1417 16.6168 7.19676 15.9454L6.39144 14.6799C4.07034 16.157 5.11661 19.75 7.86784 19.75V18.25ZM16.1316 5.75C17.3822 5.75 17.8578 7.38318 16.8027 8.05458L17.608 9.32007C19.9291 7.843 18.8828 4.25 16.1316 4.25V5.75ZM10.0256 12.3673L6.39144 14.6799L7.19676 15.9454L10.831 13.6327L10.0256 12.3673ZM16.8027 8.05458L13.1685 10.3673L13.9738 11.6327L17.608 9.32007L16.8027 8.05458Z" fill="#AE5D02"/>
<path d="M18.5 17.5H18.509" stroke="#AE5D02" stroke-width="2" stroke-linecap="round" stroke-linejoin="round"/>
<path d="M5.49023 5.5H5.49923" stroke="#AE5D02" stroke-width="2" stroke-linecap="round" stroke-linejoin="round"/>
</svg>
