<svg width="23" height="23" viewBox="0 0 23 23" fill="none" xmlns="http://www.w3.org/2000/svg">
<path d="M2.39551 6.22917C2.39551 8.34626 4.11175 10.0625 6.22884 10.0625H8.7844C9.08147 10.0625 9.23001 10.0625 9.35188 10.0298C9.68259 9.94123 9.94091 9.68292 10.0295 9.3522C10.0622 9.23034 10.0622 9.0818 10.0622 8.78472V6.22917C10.0622 4.11208 8.34593 2.39584 6.22884 2.39584" stroke="#1C274C" stroke-width="1.5" stroke-linecap="round"/>
<path d="M16.7708 20.6042C14.6537 20.6042 12.9375 18.8879 12.9375 16.7708V14.2153C12.9375 13.9182 12.9375 13.7697 12.9702 13.6478C13.0588 13.3171 13.3171 13.0588 13.6478 12.9702C13.7697 12.9375 13.9182 12.9375 14.2153 12.9375H16.7708C18.8879 12.9375 20.6042 14.6537 20.6042 16.7708" stroke="#1C274C" stroke-width="1.5" stroke-linecap="round"/>
<path d="M2.39551 16.7708C2.39551 14.6537 4.11175 12.9375 6.22884 12.9375H8.52884C9.06556 12.9375 9.33392 12.9375 9.53892 13.042C9.71924 13.1338 9.86584 13.2804 9.95772 13.4608C10.0622 13.6658 10.0622 13.9341 10.0622 14.4708V16.7708C10.0622 18.8879 8.34593 20.6042 6.22884 20.6042C4.11175 20.6042 2.39551 18.8879 2.39551 16.7708Z" stroke="#1C274C" stroke-width="1.5"/>
<path d="M12.9375 6.22917C12.9375 4.11208 14.6537 2.39584 16.7708 2.39584C18.8879 2.39584 20.6042 4.11208 20.6042 6.22917C20.6042 8.34626 18.8879 10.0625 16.7708 10.0625H14.0327C13.9056 10.0625 13.842 10.0625 13.7885 10.0565C13.3442 10.0064 12.9936 9.65577 12.9435 9.21147C12.9375 9.15799 12.9375 9.09441 12.9375 8.96726V6.22917Z" stroke="#1C274C" stroke-width="1.5"/>
</svg>
