<svg width="22" height="26" viewBox="0 0 22 26" fill="none" xmlns="http://www.w3.org/2000/svg">
<path d="M11 6.36027L10.4471 6.89247C10.4505 6.89602 10.4539 6.89955 10.4574 6.90303L11 6.36027ZM7.89107 20.0824L7.41596 20.6851L7.89107 20.0824ZM14.1089 20.0824L13.6338 19.4797L14.1089 20.0824ZM5.88434 17.5345C5.55708 17.2652 5.07344 17.3121 4.8041 17.6394C4.53476 17.9666 4.58171 18.4503 4.90897 18.7196L5.88434 17.5345ZM1.11738 14.4551C1.32076 14.8269 1.78709 14.9635 2.15895 14.7601C2.53081 14.5568 2.6674 14.0904 2.46401 13.7186L1.11738 14.4551ZM12.5039 8.94881C12.8037 9.24846 13.2896 9.24837 13.5893 8.94861C13.8889 8.64885 13.8888 8.16293 13.5891 7.86328L12.5039 8.94881ZM1.53488 10.0813C1.53488 7.88042 2.77852 6.03476 4.47609 5.2588C6.12528 4.50495 8.34124 4.70459 10.4471 6.89247L11.5529 5.82808C9.05428 3.23207 6.15396 2.80421 3.83799 3.86284C1.5704 4.89936 0 7.30617 0 10.0813H1.53488ZM7.41596 20.6851C7.94011 21.0983 8.50279 21.5389 9.07303 21.8721C9.64302 22.2052 10.2935 22.4759 11 22.4759V20.941C10.6832 20.941 10.3105 20.8175 9.84742 20.5469C9.38461 20.2764 8.90445 19.904 8.36619 19.4797L7.41596 20.6851ZM14.584 20.6851C16.0439 19.5343 17.9098 18.2157 19.3736 16.5674C20.8637 14.8895 22 12.8088 22 10.0813H20.4651C20.4651 12.3298 19.545 14.0629 18.2259 15.5482C16.8806 17.0631 15.1847 18.2571 13.6338 19.4797L14.584 20.6851ZM22 10.0813C22 7.30617 20.4296 4.89936 18.162 3.86284C15.846 2.80421 12.9457 3.23207 10.4471 5.82808L11.5529 6.89247C13.6588 4.70459 15.8747 4.50495 17.5239 5.2588C19.2215 6.03476 20.4651 7.88042 20.4651 10.0813H22ZM13.6338 19.4797C13.0955 19.904 12.6154 20.2764 12.1526 20.5469C11.6895 20.8175 11.3168 20.941 11 20.941V22.4759C11.7065 22.4759 12.357 22.2052 12.927 21.8721C13.4972 21.5389 14.0599 21.0983 14.584 20.6851L13.6338 19.4797ZM8.36619 19.4797C7.55177 18.8377 6.72411 18.2256 5.88434 17.5345L4.90897 18.7196C5.75855 19.4188 6.65599 20.086 7.41596 20.6851L8.36619 19.4797ZM2.46401 13.7186C1.88975 12.6686 1.53488 11.4793 1.53488 10.0813H0C0 11.7569 0.429715 13.1978 1.11738 14.4551L2.46401 13.7186ZM10.4574 6.90303L12.5039 8.94881L13.5891 7.86328L11.5426 5.81751L10.4574 6.90303Z" fill="#E19035"/>
</svg>
