<svg width="24" height="24" viewBox="0 0 24 24" fill="none" xmlns="http://www.w3.org/2000/svg">
<path fill-rule="evenodd" clip-rule="evenodd" d="M1.72778 1.81808C1.62731 1.41624 1.2201 1.17193 0.818259 1.2724C0.416415 1.37287 0.172104 1.78008 0.272575 2.18192L1.32442 6.38889L2.30323 10.4729C2.71942 12.2095 3.04702 13.5764 3.43576 14.6383C3.83453 15.7275 4.32353 16.5731 5.10811 17.2216C5.17582 17.2776 5.2448 17.332 5.315 17.3848C6.12846 17.9966 7.06477 18.275 8.21696 18.4089C9.34019 18.5395 10.7458 18.5395 12.5314 18.5395H13.125C14.67 18.5395 15.8863 18.5395 16.8661 18.4404C17.8697 18.3389 18.6954 18.1283 19.4386 17.663C19.791 17.4423 20.1186 17.184 20.4153 16.8927C21.1141 16.2067 21.5287 15.3453 21.8856 14.2283C22.1482 13.4067 22.3927 12.4015 22.6869 11.1749L22.76 10.87C22.9772 9.96409 23.1562 9.21743 23.2253 8.61254C23.2971 7.98475 23.2678 7.38698 22.9544 6.8412C22.8204 6.60776 22.6528 6.39527 22.457 6.21052C21.9993 5.77856 21.4248 5.61077 20.7976 5.53423C20.1932 5.46049 19.4255 5.4605 18.4938 5.46053L2.63848 5.46053L1.72778 1.81808ZM3.75081 10.0769L3.0039 6.96053H18.4452C19.4377 6.96053 20.1132 6.96185 20.6159 7.02319C21.1062 7.08301 21.3072 7.18794 21.4275 7.30143C21.5165 7.38541 21.5927 7.482 21.6536 7.5881C21.7359 7.7315 21.7911 7.95145 21.735 8.44219C21.684 8.88807 21.5556 9.455 21.366 10.25L14.0003 10.25C13.5861 10.25 13.2503 10.5858 13.2503 11C13.2503 11.4142 13.5861 11.75 14.0003 11.75L21.0046 11.75C20.8656 12.3166 20.739 12.8117 20.6139 13.25H17.0003C16.5861 13.25 16.2503 13.5858 16.2503 14C16.2503 14.4142 16.5861 14.75 17.0003 14.75H20.0871C19.8741 15.2127 19.6439 15.548 19.3645 15.8223C19.1451 16.0376 18.9031 16.2285 18.6425 16.3917C18.1684 16.6885 17.5957 16.859 16.7152 16.948C15.8195 17.0386 14.679 17.0395 13.0839 17.0395H12.5792C10.7354 17.0395 9.4168 17.0383 8.39013 16.919C7.38244 16.8019 6.73818 16.5783 6.21664 16.186C6.16475 16.147 6.11376 16.1067 6.06372 16.0654C5.56069 15.6496 5.19309 15.0752 4.84434 14.1226C4.48902 13.152 4.18056 11.87 3.75081 10.0769Z" fill="white"/>
<path d="M10.474 20.9474C10.474 21.5287 10.0027 22 9.42132 22C8.83997 22 8.36869 21.5287 8.36869 20.9474C8.36869 20.366 8.83997 19.8947 9.42132 19.8947C10.0027 19.8947 10.474 20.366 10.474 20.9474Z" fill="white"/>
<path d="M16.7897 20.9474C16.7897 21.5287 16.3185 22 15.7371 22C15.1558 22 14.6845 21.5287 14.6845 20.9474C14.6845 20.366 15.1558 19.8947 15.7371 19.8947C16.3185 19.8947 16.7897 20.366 16.7897 20.9474Z" fill="white"/>
</svg>
