<svg width="19" height="19" viewBox="0 0 19 19" fill="none" xmlns="http://www.w3.org/2000/svg">
<path d="M4.29723 5.80848C2.15022 6.29426 1.07672 6.53715 0.821313 7.35846C0.565912 8.17976 1.29776 9.03556 2.76145 10.7472L3.14012 11.19C3.55605 11.6763 3.76402 11.9195 3.85758 12.2204C3.95114 12.5213 3.9197 12.8457 3.85681 13.4947L3.79956 14.0855C3.57827 16.3691 3.46763 17.5109 4.13628 18.0185C4.80493 18.5261 5.81005 18.0633 7.82029 17.1377L8.34037 16.8983C8.91161 16.6352 9.19724 16.5037 9.5 16.5037C9.80276 16.5037 10.0884 16.6352 10.6596 16.8983L11.1797 17.1377C13.19 18.0633 14.1951 18.5261 14.8637 18.0185C15.5324 17.5109 15.4217 16.3691 15.2004 14.0855M16.2386 10.7472C17.7022 9.03556 18.4341 8.17976 18.1787 7.35846C17.9233 6.53715 16.8498 6.29426 14.7028 5.80848L14.1473 5.6828C13.5372 5.54476 13.2321 5.47574 12.9872 5.2898C12.7423 5.10386 12.5852 4.82205 12.271 4.25842L11.9849 3.74529C10.8793 1.76189 10.3265 0.770189 9.5 0.770189C8.6735 0.770189 8.12069 1.76189 7.01505 3.74529" stroke="#FFB703" stroke-width="1.5" stroke-linecap="round"/>
</svg>
